<?xml version="1.0" encoding="UTF-8" standalone="no"?>
<!DOCTYPE svg PUBLIC "-//W3C//DTD SVG 1.1//EN"
 "http://www.w3.org/Graphics/SVG/1.1/DTD/svg11.dtd">
<!-- Generated by graphviz version 2.43.0 (0)
 -->
<!-- Title: snakemake_dag Pages: 1 -->
<svg width="212pt" height="332pt"
 viewBox="0.00 0.00 211.50 332.00" xmlns="http://www.w3.org/2000/svg" xmlns:xlink="http://www.w3.org/1999/xlink">
<g id="graph0" class="graph" transform="scale(1 1) rotate(0) translate(4 328)">
<title>snakemake_dag</title>
<polygon fill="white" stroke="transparent" points="-4,4 -4,-328 207.5,-328 207.5,4 -4,4"/>
<!-- 0 -->
<g id="node1" class="node">
<title>0</title>
<path fill="none" stroke="#d8ac56" stroke-width="2" d="M112,-36C112,-36 82,-36 82,-36 76,-36 70,-30 70,-24 70,-24 70,-12 70,-12 70,-6 76,0 82,0 82,0 112,0 112,0 118,0 124,-6 124,-12 124,-12 124,-24 124,-24 124,-30 118,-36 112,-36"/>
<text text-anchor="middle" x="97" y="-15.5" font-family="sans" font-size="10.00">rule_all</text>
</g>
<!-- 1 -->
<g id="node2" class="node">
<title>1</title>
<path fill="none" stroke="#59d856" stroke-width="2" stroke-dasharray="5,2" d="M72,-108C72,-108 12,-108 12,-108 6,-108 0,-102 0,-96 0,-96 0,-84 0,-84 0,-78 6,-72 12,-72 12,-72 72,-72 72,-72 78,-72 84,-78 84,-84 84,-84 84,-96 84,-96 84,-102 78,-108 72,-108"/>
<text text-anchor="middle" x="42" y="-87.5" font-family="sans" font-size="10.00">quality_check</text>
</g>
<!-- 1&#45;&gt;0 -->
<g id="edge1" class="edge">
<title>1&#45;&gt;0</title>
<path fill="none" stroke="grey" stroke-width="2" d="M55.6,-71.7C62.12,-63.39 70.07,-53.28 77.25,-44.14"/>
<polygon fill="grey" stroke="grey" stroke-width="2" points="80.13,-46.13 83.56,-36.1 74.63,-41.81 80.13,-46.13"/>
</g>
<!-- 2 -->
<g id="node3" class="node">
<title>2</title>
<path fill="none" stroke="#56d8a9" stroke-width="2" d="M191.5,-108C191.5,-108 114.5,-108 114.5,-108 108.5,-108 102.5,-102 102.5,-96 102.5,-96 102.5,-84 102.5,-84 102.5,-78 108.5,-72 114.5,-72 114.5,-72 191.5,-72 191.5,-72 197.5,-72 203.5,-78 203.5,-84 203.5,-84 203.5,-96 203.5,-96 203.5,-102 197.5,-108 191.5,-108"/>
<text text-anchor="middle" x="153" y="-87.5" font-family="sans" font-size="10.00">mmseq2_classify</text>
</g>
<!-- 2&#45;&gt;0 -->
<g id="edge2" class="edge">
<title>2&#45;&gt;0</title>
<path fill="none" stroke="grey" stroke-width="2" d="M139.16,-71.7C132.51,-63.39 124.42,-53.28 117.11,-44.14"/>
<polygon fill="grey" stroke="grey" stroke-width="2" points="119.66,-41.73 110.68,-36.1 114.2,-46.1 119.66,-41.73"/>
</g>
<!-- 3 -->
<g id="node4" class="node">
<title>3</title>
<path fill="none" stroke="#56a9d8" stroke-width="2" d="M173,-180C173,-180 133,-180 133,-180 127,-180 121,-174 121,-168 121,-168 121,-156 121,-156 121,-150 127,-144 133,-144 133,-144 173,-144 173,-144 179,-144 185,-150 185,-156 185,-156 185,-168 185,-168 185,-174 179,-180 173,-180"/>
<text text-anchor="middle" x="153" y="-159.5" font-family="sans" font-size="10.00">assembly</text>
</g>
<!-- 3&#45;&gt;2 -->
<g id="edge3" class="edge">
<title>3&#45;&gt;2</title>
<path fill="none" stroke="grey" stroke-width="2" d="M153,-143.7C153,-135.98 153,-126.71 153,-118.11"/>
<polygon fill="grey" stroke="grey" stroke-width="2" points="156.5,-118.1 153,-108.1 149.5,-118.1 156.5,-118.1"/>
</g>
<!-- 4 -->
<g id="node5" class="node">
<title>4</title>
<path fill="none" stroke="#afd856" stroke-width="2" stroke-dasharray="5,2" d="M190.5,-252C190.5,-252 115.5,-252 115.5,-252 109.5,-252 103.5,-246 103.5,-240 103.5,-240 103.5,-228 103.5,-228 103.5,-222 109.5,-216 115.5,-216 115.5,-216 190.5,-216 190.5,-216 196.5,-216 202.5,-222 202.5,-228 202.5,-228 202.5,-240 202.5,-240 202.5,-246 196.5,-252 190.5,-252"/>
<text text-anchor="middle" x="153" y="-231.5" font-family="sans" font-size="10.00">decontamination</text>
</g>
<!-- 4&#45;&gt;3 -->
<g id="edge4" class="edge">
<title>4&#45;&gt;3</title>
<path fill="none" stroke="grey" stroke-width="2" d="M153,-215.7C153,-207.98 153,-198.71 153,-190.11"/>
<polygon fill="grey" stroke="grey" stroke-width="2" points="156.5,-190.1 153,-180.1 149.5,-190.1 156.5,-190.1"/>
</g>
<!-- 5 -->
<g id="node6" class="node">
<title>5</title>
<path fill="none" stroke="#d85656" stroke-width="2" stroke-dasharray="5,2" d="M168,-324C168,-324 138,-324 138,-324 132,-324 126,-318 126,-312 126,-312 126,-300 126,-300 126,-294 132,-288 138,-288 138,-288 168,-288 168,-288 174,-288 180,-294 180,-300 180,-300 180,-312 180,-312 180,-318 174,-324 168,-324"/>
<text text-anchor="middle" x="153" y="-303.5" font-family="sans" font-size="10.00">filtering</text>
</g>
<!-- 5&#45;&gt;4 -->
<g id="edge5" class="edge">
<title>5&#45;&gt;4</title>
<path fill="none" stroke="grey" stroke-width="2" d="M153,-287.7C153,-279.98 153,-270.71 153,-262.11"/>
<polygon fill="grey" stroke="grey" stroke-width="2" points="156.5,-262.1 153,-252.1 149.5,-262.1 156.5,-262.1"/>
</g>
</g>
</svg>
