<?xml version="1.0" encoding="UTF-8" standalone="no"?>
<!DOCTYPE svg PUBLIC "-//W3C//DTD SVG 1.1//EN"
 "http://www.w3.org/Graphics/SVG/1.1/DTD/svg11.dtd">
<!-- Generated by graphviz version 2.43.0 (0)
 -->
<!-- Title: snakemake_dag Pages: 1 -->
<svg width="367pt" height="188pt"
 viewBox="0.00 0.00 366.50 188.00" xmlns="http://www.w3.org/2000/svg" xmlns:xlink="http://www.w3.org/1999/xlink">
<g id="graph0" class="graph" transform="scale(1 1) rotate(0) translate(4 184)">
<title>snakemake_dag</title>
<polygon fill="white" stroke="transparent" points="-4,4 -4,-184 362.5,-184 362.5,4 -4,4"/>
<!-- 0 -->
<g id="node1" class="node">
<title>0</title>
<path fill="none" stroke="#56d88a" stroke-width="2" stroke-dasharray="5,2" d="M166,-36C166,-36 136,-36 136,-36 130,-36 124,-30 124,-24 124,-24 124,-12 124,-12 124,-6 130,0 136,0 136,0 166,0 166,0 172,0 178,-6 178,-12 178,-12 178,-24 178,-24 178,-30 172,-36 166,-36"/>
<text text-anchor="middle" x="151" y="-15.5" font-family="sans" font-size="10.00">rule_all</text>
</g>
<!-- 1 -->
<g id="node2" class="node">
<title>1</title>
<path fill="none" stroke="#56c1d8" stroke-width="2" stroke-dasharray="5,2" d="M72,-108C72,-108 12,-108 12,-108 6,-108 0,-102 0,-96 0,-96 0,-84 0,-84 0,-78 6,-72 12,-72 12,-72 72,-72 72,-72 78,-72 84,-78 84,-84 84,-84 84,-96 84,-96 84,-102 78,-108 72,-108"/>
<text text-anchor="middle" x="42" y="-87.5" font-family="sans" font-size="10.00">quality_check</text>
</g>
<!-- 1&#45;&gt;0 -->
<g id="edge1" class="edge">
<title>1&#45;&gt;0</title>
<path fill="none" stroke="grey" stroke-width="2" d="M68.66,-71.88C82.78,-62.81 100.31,-51.55 115.56,-41.76"/>
<polygon fill="grey" stroke="grey" stroke-width="2" points="117.71,-44.54 124.23,-36.19 113.93,-38.65 117.71,-44.54"/>
</g>
<!-- 2 -->
<g id="node3" class="node">
<title>2</title>
<path fill="none" stroke="#d85656" stroke-width="2" stroke-dasharray="5,2" d="M166,-180C166,-180 136,-180 136,-180 130,-180 124,-174 124,-168 124,-168 124,-156 124,-156 124,-150 130,-144 136,-144 136,-144 166,-144 166,-144 172,-144 178,-150 178,-156 178,-156 178,-168 178,-168 178,-174 172,-180 166,-180"/>
<text text-anchor="middle" x="151" y="-159.5" font-family="sans" font-size="10.00">filtering</text>
</g>
<!-- 2&#45;&gt;0 -->
<g id="edge2" class="edge">
<title>2&#45;&gt;0</title>
<path fill="none" stroke="grey" stroke-width="2" d="M142.69,-143.79C138.26,-133.63 133.26,-120.38 131,-108 128.13,-92.26 128.13,-87.74 131,-72 132.61,-63.2 135.6,-53.95 138.79,-45.7"/>
<polygon fill="grey" stroke="grey" stroke-width="2" points="142.12,-46.79 142.69,-36.21 135.65,-44.12 142.12,-46.79"/>
</g>
<!-- 3 -->
<g id="node4" class="node">
<title>3</title>
<path fill="none" stroke="#d8bc56" stroke-width="2" stroke-dasharray="5,2" d="M227.5,-108C227.5,-108 152.5,-108 152.5,-108 146.5,-108 140.5,-102 140.5,-96 140.5,-96 140.5,-84 140.5,-84 140.5,-78 146.5,-72 152.5,-72 152.5,-72 227.5,-72 227.5,-72 233.5,-72 239.5,-78 239.5,-84 239.5,-84 239.5,-96 239.5,-96 239.5,-102 233.5,-108 227.5,-108"/>
<text text-anchor="middle" x="190" y="-87.5" font-family="sans" font-size="10.00">decontamination</text>
</g>
<!-- 2&#45;&gt;3 -->
<g id="edge5" class="edge">
<title>2&#45;&gt;3</title>
<path fill="none" stroke="grey" stroke-width="2" d="M160.64,-143.7C165.13,-135.64 170.56,-125.89 175.52,-116.98"/>
<polygon fill="grey" stroke="grey" stroke-width="2" points="178.66,-118.54 180.47,-108.1 172.55,-115.14 178.66,-118.54"/>
</g>
<!-- 3&#45;&gt;0 -->
<g id="edge3" class="edge">
<title>3&#45;&gt;0</title>
<path fill="none" stroke="grey" stroke-width="2" d="M180.36,-71.7C175.87,-63.64 170.44,-53.89 165.48,-44.98"/>
<polygon fill="grey" stroke="grey" stroke-width="2" points="168.45,-43.14 160.53,-36.1 162.34,-46.54 168.45,-43.14"/>
</g>
<!-- 4 -->
<g id="node5" class="node">
<title>4</title>
<path fill="none" stroke="#88d856" stroke-width="2" stroke-dasharray="5,2" d="M346.5,-108C346.5,-108 269.5,-108 269.5,-108 263.5,-108 257.5,-102 257.5,-96 257.5,-96 257.5,-84 257.5,-84 257.5,-78 263.5,-72 269.5,-72 269.5,-72 346.5,-72 346.5,-72 352.5,-72 358.5,-78 358.5,-84 358.5,-84 358.5,-96 358.5,-96 358.5,-102 352.5,-108 346.5,-108"/>
<text text-anchor="middle" x="308" y="-87.5" font-family="sans" font-size="10.00">mmseq2_classify</text>
</g>
<!-- 4&#45;&gt;0 -->
<g id="edge4" class="edge">
<title>4&#45;&gt;0</title>
<path fill="none" stroke="grey" stroke-width="2" d="M269.59,-71.88C244.59,-60.73 212.17,-46.27 187.54,-35.29"/>
<polygon fill="grey" stroke="grey" stroke-width="2" points="188.74,-32 178.18,-31.12 185.89,-38.39 188.74,-32"/>
</g>
</g>
</svg>
